<svg width="55" height="60" viewBox="0 0 55 60" fill="none" xmlns="http://www.w3.org/2000/svg">
<path d="M25.5131 55.7814C24.4572 53.95 23.5742 52.3857 23.5742 52.3475C23.5742 52.3094 25.3403 52.2712 27.5096 52.2712C29.6789 52.2712 31.445 52.3094 31.445 52.3475C31.445 52.4238 27.6632 58.9482 27.548 59.0626C27.5096 59.1199 26.5881 57.6319 25.5131 55.7814Z" fill="#E1E1E6"/>
<path d="M13.3421 46.6053C13.1117 46.2047 12.3438 44.9075 11.6527 43.6865L10.3857 41.4927L6.8918 41.3973L3.4171 41.3019L4.97208 38.6311C5.83595 37.1622 6.56544 35.8458 6.62304 35.7314C6.69983 35.5406 5.91274 35.4834 3.35951 35.4452L0 35.388L3.4171 29.5123L6.83421 23.6174L5.12565 20.6796L3.39791 17.7417L8.13962 9.59577C10.7312 5.09358 13.0157 1.27816 13.1693 1.08739C13.3421 0.896619 13.6684 0.76308 13.9372 0.801234C14.3211 0.858465 14.9162 1.73601 17.5462 6.27636C19.274 9.25238 20.6946 11.7324 20.6946 11.7706C20.6946 11.8087 21.4817 13.1823 22.4223 14.8038L24.1501 17.7798L22.4799 20.7177C21.5393 22.3393 20.733 23.6556 20.6754 23.6556C20.5986 23.6556 19.0436 21.0802 17.2199 17.9325C15.3962 14.7847 13.8412 12.2093 13.7836 12.2093C13.726 12.2093 13.2653 12.9533 12.7469 13.8881C12.2286 14.8038 11.4607 16.1011 11.0384 16.7878C9.40663 19.4586 7.06457 23.5411 7.10297 23.6556C7.14136 23.7128 7.89005 25.0291 8.77312 26.5744L10.4049 29.3787L13.8604 29.4169L17.3159 29.4741L19.0052 32.3357C19.9267 33.9191 20.6754 35.2545 20.6946 35.3498C20.6946 35.4261 19.1588 35.4834 17.2967 35.4834H13.8796L12.3054 38.2114C11.4223 39.7185 10.712 41.0157 10.712 41.073C10.712 41.1493 12.2094 41.2065 14.0332 41.2065L17.3351 41.2256L19.0244 44.1444C19.9459 45.7469 20.6946 47.1204 20.6946 47.1967C20.6946 47.2539 19.1396 47.3112 17.2391 47.3112H13.7644L13.3421 46.6053ZM13.534 35.1591C13.4764 35.0637 12.7853 33.8428 11.9599 32.431C11.1344 31.0193 10.4433 29.8366 10.4241 29.7984C10.3665 29.7412 7.25654 35.0446 7.25654 35.1972C7.25654 35.2545 8.69633 35.2926 10.4433 35.2926C12.1902 35.2926 13.5724 35.2354 13.534 35.1591Z" fill="#E1E1E6"/>
<path d="M34.3246 47.1776C34.3246 47.1013 35.0733 45.7278 36.014 44.1253L37.6841 41.2065H41.0052C42.8098 41.2065 44.3072 41.1493 44.3072 41.092C44.3072 41.0348 43.5969 39.7376 42.733 38.2305L41.1396 35.4834H37.7417C35.8604 35.4834 34.3246 35.4261 34.3246 35.3689C34.3246 35.2926 35.0733 33.9191 36.014 32.3166L37.6841 29.3978L41.1396 29.3787H44.5951L46.2653 26.4981L47.9162 23.6174L45.5166 19.4968C44.192 17.2266 42.7138 14.6512 42.2147 13.7927C41.7347 12.9343 41.274 12.2093 41.2164 12.2093C41.1588 12.2093 39.6038 14.7847 37.7801 17.9325C35.9564 21.0802 34.4014 23.6556 34.3438 23.6556C34.2862 23.6556 33.4607 22.3393 32.5393 20.7177L30.8499 17.7798L32.2705 15.338C33.0576 13.9835 33.9407 12.4573 34.2286 11.9232C35.726 9.19516 41.1204 0 41.2164 0C41.274 0.0190771 43.6353 4.00619 46.4572 8.87084L51.6021 17.7417L49.8744 20.6796L48.1658 23.6365L51.5829 29.5123L55 35.388L51.6597 35.4452C49.1065 35.4834 48.3194 35.5406 48.3962 35.7314C48.4538 35.8458 49.1833 37.1622 50.0279 38.6311L51.5829 41.3019L48.1082 41.3973L44.6527 41.4927L42.9826 44.3542L41.3124 47.2158L37.8185 47.273C35.8988 47.2921 34.3246 47.2539 34.3246 47.1776ZM47.7627 35.2163C47.7627 35.1781 47.0524 33.9191 46.1885 32.431L44.6335 29.7412L43.6353 31.42C43.0977 32.3357 42.3682 33.5947 42.0227 34.2052L41.4084 35.2926H44.5759C46.3229 35.2926 47.7627 35.2545 47.7627 35.2163Z" fill="#E1E1E6"/>
</svg>
